<svg xmlns="http://www.w3.org/2000/svg" version="1.1" xmlns:xlink="http://www.w3.org/1999/xlink" xmlns:svgjs="http://svgjs.dev/svgjs" width="1000" height="1125" viewBox="0 0 1000 1125"><g transform="matrix(1,0,0,1,0.0011008540699322111,0)"><svg viewBox="0 0 320 360" data-background-color="#ffffff" preserveAspectRatio="xMidYMid meet" height="1125" width="1000" xmlns="http://www.w3.org/2000/svg" xmlns:xlink="http://www.w3.org/1999/xlink"><g id="tight-bounds" transform="matrix(1,0,0,1,0.00010353528136874957,0)"><svg viewBox="0 0 320 360" height="360" width="320"><g><svg></svg></g><g><svg viewBox="0 0 320 360" height="360" width="320"><g><path xmlns="http://www.w3.org/2000/svg" d="M307.925 179.999l6.575-11.387c11.322-19.607 4.604-44.679-15.003-56.001l-11.387-6.575v-13.151c0-22.639-18.354-40.994-40.994-40.994h-13.151l-6.575-11.387c-11.322-19.607-36.393-26.325-56.001-15.003l-11.39 6.572-11.387-6.576c-19.607-11.318-44.679-4.6-56.001 15.007l-6.575 11.387h-13.151c-22.639 0-40.994 18.354-40.994 40.994v13.151l-11.387 6.575c-19.607 11.322-26.325 36.393-15.003 56.001l6.572 11.387-6.576 11.387c-11.318 19.607-4.6 44.679 15.007 56l11.387 6.576v13.15c0 22.639 18.354 40.994 40.994 40.994h13.151l6.575 11.387c11.322 19.607 36.393 26.325 56.001 15.003l11.387-6.571 11.387 6.575c19.607 11.322 44.679 4.604 56-15.003l6.576-11.387h13.15c22.639 0 40.994-18.354 40.994-40.994v-13.151l11.387-6.575c19.607-11.322 26.325-36.393 15.003-56.001zM297.702 115.716c8.655 4.996 14.842 13.062 17.428 22.713 2.586 9.65 1.261 19.734-3.735 28.384l-5.538 9.596-17.747-30.74v-35.494zM251.155 271.155l-57.791 33.365h-66.731l-57.791-33.365-33.365-57.791v-66.731l33.365-57.791 57.791-33.365h66.731l57.791 33.365 33.365 57.791v66.731zM284.517 220.539v31.351l-27.151 15.676zM247.566 277.366l-15.676 27.151h-31.351zM187.15 308.106l-27.151 15.676-27.151-15.676zM119.459 304.517h-31.352l-15.676-27.151zM62.632 267.566l-27.151-15.676v-31.351zM31.891 207.15l-15.675-27.151 15.675-27.151zM35.481 139.459v-31.352l27.151-15.676zM72.431 82.632l15.676-27.151h31.352zM132.848 51.891l27.151-15.675 27.151 15.675zM200.539 55.481h31.351l15.676 27.151zM257.366 92.431l27.151 15.676v31.352zM288.106 152.848l15.676 27.151-15.676 27.151zM247.112 55.481c9.992 0 19.384 3.889 26.452 10.956 7.063 7.063 10.956 16.46 10.957 26.452v11.079l-30.741-17.747-17.747-30.74zM173.18 28.606c8.655-4.996 18.735-6.322 28.385-3.735 9.65 2.586 17.716 8.777 22.712 17.428l5.538 9.596h-35.494l-30.741-17.747zM95.716 42.295c4.996-8.655 13.062-14.842 22.713-17.428 9.65-2.586 19.734-1.261 28.384 3.736l9.596 5.537-30.74 17.747h-35.494zM35.481 92.885c0-9.992 3.889-19.384 10.956-26.452 7.063-7.063 16.46-10.956 26.452-10.956h11.079l-17.747 30.74-30.74 17.747zM8.606 166.817c-4.996-8.655-6.322-18.735-3.735-28.385 2.586-9.65 8.777-17.716 17.428-22.712l9.596-5.538v35.495l-17.747 30.74zM22.295 244.281c-8.655-4.996-14.842-13.062-17.428-22.712-2.586-9.65-1.261-19.734 3.736-28.385l5.537-9.596 17.747 30.74v35.495zM72.885 304.517c-9.992 0-19.384-3.889-26.452-10.957-7.063-7.063-10.956-16.46-10.956-26.451v-11.08l30.74 17.747 17.747 30.741zM146.817 331.391c-8.655 4.996-18.735 6.322-28.385 3.735-9.65-2.586-17.716-8.777-22.712-17.428l-5.538-9.596h35.495l30.74 17.747zM224.281 317.702c-4.996 8.655-13.062 14.842-22.712 17.428-9.65 2.586-19.734 1.261-28.385-3.735l-9.596-5.538 30.74-17.747h35.495zM284.517 267.112c0 9.992-3.889 19.384-10.957 26.452-7.063 7.063-16.46 10.956-26.451 10.957h-11.08l17.747-30.741 30.741-17.747zM315.13 221.565c-2.586 9.65-8.777 17.716-17.428 22.712l-9.596 5.538v-35.494l17.747-30.741 5.538 9.596c4.996 8.658 6.326 18.739 3.739 28.389z" fill="#ed3b43" fill-rule="nonzero" stroke="none" stroke-width="1" stroke-linecap="butt" stroke-linejoin="miter" stroke-miterlimit="10" stroke-dasharray="" stroke-dashoffset="0" font-family="none" font-weight="none" font-size="none" text-anchor="none" style="mix-blend-mode: normal" data-fill-palette-color="tertiary"></path></g><g transform="matrix(1,0,0,1,64,156.78948118425396)"><svg viewBox="0 0 192 46.421037631492084" height="46.421037631492084" width="192"><g><svg viewBox="0 0 192 46.421037631492084" height="46.421037631492084" width="192"><g><svg viewBox="0 0 293.8346452195167 71.04223501651724" height="46.421037631492084" width="192"><g transform="matrix(1,0,0,1,0,9.818427560169898)"><svg viewBox="0 0 192 51.40537989617744" height="51.40537989617744" width="192"><g><svg viewBox="0 0 192 51.40537989617744" height="51.40537989617744" width="192" id="textblock"><g><svg viewBox="0 0 192 51.40537989617744" height="51.40537989617744" width="192"><g transform="matrix(1,0,0,1,0,0)"><svg width="192" viewBox="3.690000057220459 -39.869998931884766 155.17999267578125 41.54999923706055" height="51.40537989617744" data-palette-color="#ed3b43"><path d="M24.19-14.43L24.19-32.71Q24.39-33.52 24.54-33.89 24.68-34.25 25.17-34.38L25.17-34.38 31.49-35.86Q31.79-35.96 32.13-35.96L32.13-35.96Q32.45-35.96 32.59-35.74 32.74-35.52 32.74-34.91L32.74-34.91Q32.59-34.33 32.5-33.12 32.4-31.91 32.35-30.47 32.3-29.03 32.28-27.58 32.25-26.12 32.25-25.05L32.25-25.05 32.25-23.71Q32.25-22.19 32.23-20.41 32.2-18.63 32.17-16.8 32.13-14.97 32.08-13.18 32.03-11.4 31.98-9.84L31.98-9.84 31.84-5.66Q31.81-5.54 31.81-5.44 31.81-5.35 31.81-5.25L31.81-5.25 31.81-4.88Q31.81-4.47 31.82-4.19 31.84-3.91 31.84-3.69L31.84-3.69Q31.84-3.44 31.8-3.25 31.76-3.05 31.62-2.87 31.47-2.69 31.21-2.49 30.96-2.29 30.52-2L30.52-2Q30.27-1.83 29.71-1.5 29.15-1.17 28.47-0.76 27.78-0.34 27.05 0.1 26.32 0.54 25.71 0.89 25.1 1.25 24.72 1.46 24.34 1.68 24.34 1.68L24.34 1.68 13.01-15.75 11.99-1.46Q11.96-1.27 11.9-1.05 11.84-0.83 11.57-0.71L11.57-0.71Q11.35-0.61 10.82-0.4 10.28-0.2 9.56 0.07 8.84 0.34 8.04 0.62 7.25 0.9 6.54 1.14 5.83 1.37 5.29 1.51 4.74 1.66 4.54 1.66L4.54 1.66Q4.17 1.66 3.93 1.46 3.69 1.27 3.69 0.76L3.69 0.76Q3.93-2.29 4.25-5.9 4.57-9.5 4.86-13.28 5.15-17.07 5.41-20.84 5.66-24.61 5.83-28L5.83-28Q5.83-28.1 5.53-28.65 5.22-29.2 4.85-29.85 4.47-30.49 4.16-31.07 3.86-31.64 3.86-31.79L3.86-31.79Q3.86-31.96 4.04-32.1 4.22-32.25 4.64-32.5L4.64-32.5 11.16-36.18Q11.23-36.18 11.36-36.21 11.5-36.23 11.6-36.23L11.6-36.23Q11.87-36.23 12.02-36.17 12.18-36.11 12.35-35.79L12.35-35.79 24.19-14.43ZM63.67-27.66L61.15-4.91Q61.13-4.81 61.13-4.72 61.13-4.64 61.13-4.57L61.13-4.57Q61.13-3.96 61.33-3.55 61.52-3.15 61.75-2.89 61.98-2.64 62.18-2.48 62.38-2.32 62.38-2.2L62.38-2.2Q62.38-1.86 61.64-1.56L61.64-1.56 55.08 1.25Q55.05 1.27 54.9 1.27L54.9 1.27Q54.71 1.27 54.51 0.93 54.32 0.59 54.14 0.06 53.95-0.46 53.79-1.06 53.64-1.66 53.51-2.17L53.51-2.17Q51.98-0.39 50.19 0.44 48.41 1.27 46.65 1.27L46.65 1.27Q44.6 1.27 42.65 0.37 40.7-0.54 39.18-2.21 37.67-3.88 36.75-6.25 35.84-8.62 35.84-11.57L35.84-11.57Q35.84-15.06 36.85-17.94 37.86-20.83 39.6-22.9 41.33-24.98 43.64-26.11 45.94-27.25 48.53-27.25L48.53-27.25Q50.36-27.25 52-26.5 53.64-25.76 55.1-24.58L55.1-24.58Q55.25-25.32 55.27-25.76 55.3-26.2 55.38-26.44 55.47-26.68 55.71-26.77 55.95-26.86 56.52-26.9L56.52-26.9Q58.27-27.15 60.02-27.36 61.77-27.56 63.67-27.66L63.67-27.66ZM52.83-6.88L53.85-14.11Q54.1-15.5 54.18-16.74 54.27-17.97 54.32-18.99L54.32-18.99Q53.93-19.29 53.48-19.6 53.02-19.92 52.5-20.2 51.98-20.48 51.4-20.65 50.83-20.83 50.19-20.83L50.19-20.83Q48.87-20.83 47.98-19.97 47.09-19.12 46.54-17.87 45.99-16.63 45.76-15.23 45.53-13.84 45.53-12.77L45.53-12.77Q45.53-8.91 46.54-7.12 47.56-5.32 49.36-5.32L49.36-5.32Q50.1-5.32 51-5.74 51.9-6.15 52.83-6.88L52.83-6.88ZM67.33-10.35L67.33-10.35Q67.65-13.7 67.96-16.97 68.28-20.24 68.53-23.68L68.53-23.68Q68.57-24.49 68.68-24.79 68.79-25.1 69.23-25.2L69.23-25.2Q71.31-25.61 73.58-26.06 75.85-26.51 77.97-27.22L77.97-27.22Q78.05-27.25 78.19-27.25L78.19-27.25Q78.46-27.25 78.46-27.05L78.46-27.05 76.26-3.27Q76.19-2.47 76.09-2.16 76-1.86 75.56-1.76L75.56-1.76Q73.48-1.12 71.36-0.34 69.23 0.44 66.87 1.25L66.87 1.25Q66.79 1.27 66.65 1.27L66.65 1.27Q66.38 1.27 66.38 1.03L66.38 1.03Q66.38 1 66.43 0.37 66.47-0.27 66.56-1.27 66.65-2.27 66.74-3.52 66.84-4.76 66.95-6.01 67.06-7.25 67.16-8.4 67.26-9.55 67.33-10.35ZM69.16-29.83L69.16-29.83Q69.23-30.88 69.27-31.45 69.31-32.01 69.33-32.29 69.36-32.57 69.36-32.64 69.36-32.71 69.37-32.75 69.38-32.79 69.39-32.9 69.4-33.01 69.43-33.36 69.45-33.72 69.5-34.4 69.55-35.08 69.65-36.28L69.65-36.28Q69.7-37.08 69.81-37.39 69.92-37.7 70.36-37.79L70.36-37.79Q72.43-38.21 74.7-38.66 76.97-39.11 79.1-39.82L79.1-39.82Q79.17-39.84 79.32-39.84L79.32-39.84Q79.39-39.7 79.51-39.65L79.51-39.65 79.58-39.6 79.05-32.91Q78.97-32.1 78.86-31.79 78.75-31.47 78.34-31.4L78.34-31.4Q76.26-31.01 74.14-30.54 72.02-30.08 69.65-29.61L69.65-29.61Q69.58-29.59 69.43-29.59L69.43-29.59Q69.16-29.59 69.16-29.83ZM84.37 0.37L84.37 0.37Q84.39 0.1 84.48-0.79 84.56-1.68 84.68-3.05 84.81-4.42 84.97-6.19 85.12-7.96 85.32-10 85.51-12.04 85.72-14.26 85.93-16.48 86.15-18.75L86.15-18.75 82.9-18.75Q81.58-18.75 81-18.86 80.41-18.97 80.41-19.31L80.41-19.31Q80.41-19.41 80.66-19.84 80.9-20.26 81.28-20.86 81.66-21.46 82.1-22.14 82.54-22.83 82.94-23.43 83.34-24.02 83.64-24.46 83.93-24.9 84-25L84-25 86.98-25 87.47-28.88Q87.81-31.96 88.7-34.06 89.59-36.16 90.92-37.45 92.25-38.75 93.96-39.31 95.67-39.87 97.62-39.87L97.62-39.87Q99.58-39.87 101.69-39.39 103.8-38.92 105.95-38.09L105.95-38.09Q106.41-37.89 106.65-37.76 106.88-37.62 106.88-37.4L106.88-37.4Q106.88-37.21 106.71-36.89L106.71-36.89Q105.93-35.38 105.55-34.45 105.17-33.52 104.95-32.98 104.73-32.45 104.58-32.26 104.44-32.08 104.14-32.08L104.14-32.08Q104-32.08 103.84-32.15 103.68-32.23 103.46-32.32L103.46-32.32Q102.6-32.64 101.74-32.9 100.87-33.15 100.09-33.15L100.09-33.15Q98.99-33.15 98.2-32.47 97.4-31.79 96.94-29.88L96.94-29.88Q96.67-28.78 96.5-27.51 96.33-26.25 96.21-25L96.21-25 102.58-25Q102.78-25 102.96-24.87 103.14-24.73 103.14-24.41L103.14-24.41Q103.14-24.29 102.85-23.54 102.56-22.78 102.02-21.56L102.02-21.56 101.14-19.58Q100.97-19.21 100.79-19.04 100.6-18.87 100.04-18.82L100.04-18.82 95.82-18.82Q95.55-16.28 95.31-13.79 95.06-11.3 94.84-9.12 94.62-6.93 94.45-5.24 94.28-3.54 94.18-2.61L94.18-2.61Q94.16-2.54 94.16-2.34L94.16-2.34Q94.16-2.25 94.17-2.17 94.18-2.1 94.18-2.05L94.18-2.05Q94.18-1.83 94.02-1.7 93.86-1.56 93.21-1.39L93.21-1.39 86.78 0.88Q86.52 0.98 86.08 1.12 85.64 1.27 85.22 1.27L85.22 1.27Q84.81 1.27 84.59 1.07 84.37 0.88 84.37 0.37ZM105.53-20.65L105.53-20.65Q105.82-24 106.01-27.27 106.19-30.54 106.41-33.98L106.41-33.98Q106.46-34.79 106.57-35.1 106.68-35.4 107.12-35.5L107.12-35.5Q109.39-35.91 111.67-36.34 113.95-36.77 116.25-37.48L116.25-37.48Q116.32-37.5 116.47-37.5L116.47-37.5Q116.74-37.5 116.74-37.26L116.74-37.26 113.56-2.39 113.56-1.98Q113.56-1.76 113.39-1.62 113.22-1.49 112.59-1.32L112.59-1.32 106.19 1.03Q105.92 1.15 105.48 1.28 105.04 1.42 104.63 1.42L104.63 1.42Q104.29 1.42 104.03 1.25 103.77 1.07 103.77 0.66L103.77 0.66 103.77 0.51Q103.97-1.95 104.15-4.31 104.34-6.67 104.54-9.18 104.75-11.69 104.99-14.5 105.24-17.31 105.53-20.65ZM119.67-10.35L119.67-10.35Q119.98-13.7 120.3-16.97 120.62-20.24 120.86-23.68L120.86-23.68Q120.91-24.49 121.02-24.79 121.13-25.1 121.57-25.2L121.57-25.2Q123.64-25.61 125.92-26.06 128.19-26.51 130.31-27.22L130.31-27.22Q130.38-27.25 130.53-27.25L130.53-27.25Q130.8-27.25 130.8-27.05L130.8-27.05 128.6-3.27Q128.53-2.47 128.43-2.16 128.33-1.86 127.89-1.76L127.89-1.76Q125.82-1.12 123.69-0.34 121.57 0.44 119.2 1.25L119.2 1.25Q119.13 1.27 118.98 1.27L118.98 1.27Q118.71 1.27 118.71 1.03L118.71 1.03Q118.71 1 118.76 0.37 118.81-0.27 118.9-1.27 118.98-2.27 119.08-3.52 119.18-4.76 119.29-6.01 119.4-7.25 119.49-8.4 119.59-9.55 119.67-10.35ZM121.5-29.83L121.5-29.83Q121.57-30.88 121.61-31.45 121.64-32.01 121.67-32.29 121.69-32.57 121.69-32.64 121.69-32.71 121.7-32.75 121.72-32.79 121.73-32.9 121.74-33.01 121.76-33.36 121.79-33.72 121.84-34.4 121.89-35.08 121.98-36.28L121.98-36.28Q122.03-37.08 122.14-37.39 122.25-37.7 122.69-37.79L122.69-37.79Q124.77-38.21 127.04-38.66 129.31-39.11 131.43-39.82L131.43-39.82Q131.51-39.84 131.65-39.84L131.65-39.84Q131.73-39.7 131.85-39.65L131.85-39.65 131.92-39.6 131.38-32.91Q131.31-32.1 131.2-31.79 131.09-31.47 130.68-31.4L130.68-31.4Q128.6-31.01 126.48-30.54 124.35-30.08 121.98-29.61L121.98-29.61Q121.91-29.59 121.76-29.59L121.76-29.59Q121.5-29.59 121.5-29.83ZM148.13 1.42L148.13 1.42Q148.11 1.39 147.78 0.77 147.45 0.15 146.92-0.84 146.4-1.83 145.75-3.05 145.1-4.27 144.44-5.52L144.44-5.52Q143.52-4.27 142.61-3.05 141.71-1.83 141-0.84 140.29 0.15 139.83 0.77 139.36 1.39 139.34 1.42L139.34 1.42Q139.17 1.66 138.88 1.66L138.88 1.66Q138.73 1.66 138.68 1.64L138.68 1.64Q137.95 1.27 137.09 0.99 136.24 0.71 135.35 0.48 134.46 0.24 133.55 0.04 132.65-0.17 131.82-0.39L131.82-0.39Q131.58-0.44 131.58-0.63L131.58-0.63Q131.58-0.81 131.77-1.07 131.97-1.34 132.38-1.9L132.38-1.9 140.46-12.96Q139-15.67 137.57-18.29 136.14-20.9 134.63-23.68L134.63-23.68Q134.36-24.17 134.21-24.44 134.07-24.71 134.07-24.9L134.07-24.9Q134.07-25.12 134.38-25.2L134.38-25.2Q136.22-25.61 138.13-26.06 140.05-26.51 141.68-27.22L141.68-27.22Q141.76-27.25 141.9-27.25L141.9-27.25Q142.22-27.25 142.32-27L142.32-27 145.98-20.36 151.08-27Q151.25-27.25 151.55-27.25L151.55-27.25Q151.69-27.25 151.74-27.22L151.74-27.22Q153.23-26.51 155.08-26.06 156.92-25.61 158.63-25.2L158.63-25.2Q158.87-25.12 158.87-24.98L158.87-24.98Q158.87-24.76 158.68-24.5 158.48-24.24 158.07-23.68L158.07-23.68Q155.94-20.9 153.94-18.3 151.94-15.7 149.96-12.96L149.96-12.96 155.82-1.9Q156.06-1.44 156.21-1.17 156.36-0.9 156.36-0.71L156.36-0.71Q156.36-0.46 156.06-0.39L156.06-0.39Q154.23 0.02 152.32 0.48 150.4 0.93 148.76 1.64L148.76 1.64Q148.69 1.66 148.54 1.66L148.54 1.66Q148.28 1.66 148.13 1.42Z" opacity="1" transform="matrix(1,0,0,1,0,0)" fill="#ed3b43" class="undefined-text-0" data-fill-palette-color="primary" id="text-0"></path></svg></g></svg></g></svg></g></svg></g><g transform="matrix(1,0,0,1,204.13557646437,0)"><svg viewBox="0 0 89.69906875514671 71.04223501651724" height="71.04223501651724" width="89.69906875514671"><g><svg xmlns="http://www.w3.org/2000/svg" xmlns:xlink="http://www.w3.org/1999/xlink" version="1.1" x="0" y="0" viewBox="5.1020002365112305 14.440999984741211 89.7959976196289 71.11900329589844" enable-background="new 0 0 100 100" xml:space="preserve" height="71.04223501651724" width="89.69906875514671" class="icon-icon-0" data-fill-palette-color="accent" id="icon-0"><path d="M76.075 14.441v5.246H26.234v-5.246H5.102v71.119h21.132v-5.028h49.841v5.028h18.823V14.441H76.075zM17.927 79.584h-4.372v-4.372h4.372V79.584zM17.927 70.476h-4.372v-4.372h4.372V70.476zM17.927 61.367h-4.372v-4.372h4.372V61.367zM17.927 52.259h-4.372v-4.372h4.372V52.259zM17.927 43.15h-4.372v-4.372h4.372V43.15zM17.927 34.042h-4.372V29.67h4.372V34.042zM17.927 24.934h-4.372v-4.372h4.372V24.934zM76.075 74.338H26.234v-48.53h49.841V74.338zM88.098 79.584h-4.372v-4.372h4.372V79.584zM88.098 70.476h-4.372v-4.372h4.372V70.476zM88.098 61.367h-4.372v-4.372h4.372V61.367zM88.098 52.259h-4.372v-4.372h4.372V52.259zM88.098 43.15h-4.372v-4.372h4.372V43.15zM88.098 34.042h-4.372V29.67h4.372V34.042zM88.098 24.934h-4.372v-4.372h4.372V24.934z" fill="#fe3c17" data-fill-palette-color="accent"></path></svg></g></svg></g></svg></g></svg></g></svg></g></svg></g><defs></defs></svg><rect width="320" height="360" fill="none" stroke="none" visibility="hidden"></rect></g></svg></g></svg>